<?xml version="1.0" encoding="UTF-8"?>
<svg id="Layer_2" data-name="Layer 2" xmlns="http://www.w3.org/2000/svg" viewBox="0 0 1067.86 1067.87">
  <defs>
    <style>
      .cls-1 {
        fill: #fff;
        stroke-width: 0px;
      }
    </style>
  </defs>
  <g id="Layer_1-2" data-name="Layer 1">
    <g>
      <path class="cls-1" d="M74.54,757.06c10.31-6.49,20.63-9.73,30.94-9.73,5.65,0,11.23,1.83,16.72,5.49,5.49,3.67,8.24,9.48,8.24,17.47,0,6.32-2.75,12.06-8.24,17.22-5.49,5.16-11.9,7.74-19.22,7.74-4.33,0-8.57-.33-12.73-1-4.16-.66-7.91-2.16-11.23-4.49v2.99c0,14.65,7.06,26.7,21.21,36.19,14.14,9.48,33.52,14.22,58.15,14.22,21.96,0,42.92-3.82,62.89-11.48,19.96-7.65,41.84-22.21,65.63-43.67,23.79-21.46,52.32-52.66,85.6-93.58,33.27-40.93,74.2-94.83,122.78-161.71,53.23-74.53,106.64-135.59,160.21-183.17,53.57-47.58,108.47-90,164.7-127.27,3.32-2,6.57-3.91,9.73-5.74,3.16-1.83,6.4-3.57,9.73-5.24-20.3-13.64-45.67-23.79-76.11-30.45-30.45-6.65-64.47-9.98-102.07-9.98-57.9,0-112.8,9.32-164.7,27.95-51.91,18.64-97.66,42.76-137.25,72.37-39.6,29.62-70.46,61.48-92.58,95.58-22.13,34.11-32.69,66.8-31.69,98.07.66,17.97,5.24,32.28,13.73,42.92,8.49,10.65,18.63,18.3,30.44,22.96,11.81,4.66,23.04,6.99,33.69,6.99,23.96,0,48.08-7.4,72.37-22.21,24.28-14.8,47.49-33.77,69.63-56.9,22.12-23.12,42-47.74,59.64-73.87,17.63-26.12,31.94-50.66,42.92-73.62,10.98-22.96,17.13-41.43,18.47-55.4,1.33-11.31,3.82-16.97,7.49-16.97,3.32,0,4.99,5.33,4.99,15.97,1,29.28-4.66,60.98-16.97,95.08-12.31,34.11-30.53,66.47-54.65,97.08-24.13,30.62-53.49,55.57-88.09,74.87-34.61,19.3-73.54,28.95-116.79,28.95-21.63,0-42.51-7.57-62.64-22.71-20.14-15.14-30.53-35.35-31.19-60.64-1-32.94,7.15-64.8,24.46-95.58,17.3-30.77,41.25-59.14,71.87-85.1,30.61-25.95,65.46-48.66,104.56-68.13,39.09-19.47,80.11-34.6,123.03-45.42,42.92-10.81,85.18-16.22,126.77-16.22,76.53,0,138.58,15.31,186.17,45.92,25.62-12.98,47.74-22.46,66.38-28.45,1.89-.61,3.73-1.18,5.53-1.73C829.46,66.51,689.47,0,533.93,0,239.05,0,0,239.05,0,533.93c0,88.64,21.61,172.22,59.83,245.79,1.77-10.03,6.66-17.6,14.71-22.66Z"/>
      <path class="cls-1" d="M937.56,184.4c-19.83,6.71-41.31,17.16-64.45,31.39,38.6,31.28,58.9,71.37,60.89,120.28,1.33,27.95-6.32,55.65-22.96,83.1-16.64,27.45-40.51,52.24-71.62,74.37-31.12,22.13-67.8,39.52-110.05,52.16,9.65,9.98,14.64,22.96,14.97,38.93,1,14.97-.67,30.03-4.99,45.17-4.33,15.14-13.81,32.78-28.45,52.9-14.65,20.14-36.93,45.17-66.88,75.12-11.32,9.65-18.97,18.55-22.96,26.7-3.99,8.16-5.83,15.56-5.49,22.21,0,9.98,3.66,18.55,10.98,25.7,7.32,7.16,21.13,10.73,41.43,10.73,26.62,0,54.48-9.81,83.6-29.45,29.11-19.63,56.31-46.58,81.6-80.85,25.28-34.27,45.25-73.03,59.89-116.29,2.66-9.98,4.99-14.97,6.99-14.97,5.99,0,8.98,4.83,8.98,14.47.33,28.95-7.49,57.65-23.46,86.1-15.97,28.45-36.61,54.32-61.89,77.61-25.29,23.29-51.99,42.01-80.11,56.15-28.12,14.15-54.15,21.21-78.11,21.21-26.95,0-47.75-5.74-62.39-17.22-14.65-11.48-22.3-26.2-22.96-44.17-.67-24.62,3.32-46.74,11.98-66.38,8.65-19.63,19.79-37.6,33.44-53.9,13.64-16.3,27.28-31.44,40.93-45.42,17.63-14.64,28.95-26.78,33.94-36.43,4.99-9.65,7.32-19.13,6.99-28.45,0-4.66-1-8.98-3-12.98-8.32,2-16.31,3.42-23.96,4.24-7.66.83-14.81,1.25-21.46,1.25-14.31,0-25.13-1.91-32.44-5.74-7.32-3.82-11.15-8.24-11.48-13.23-.34-3.99,2.75-7.9,9.23-11.73,6.49-3.82,16.05-5.74,28.7-5.74,10.98,0,21.71.92,32.19,2.75,10.48,1.83,19.88,5.08,28.2,9.73,22.96-9.65,45.08-23.62,66.38-41.92,21.29-18.3,40.34-38.93,57.15-61.89,16.8-22.96,29.95-46.25,39.43-69.87,9.48-23.62,13.89-45.58,13.23-65.88-1-26.62-11.48-49.41-31.44-68.38-39.6,26.95-81.19,63.81-124.78,110.55-43.59,46.75-86.52,100.9-128.77,162.46-64.56,90.51-123.36,161.88-176.43,214.12-53.08,52.24-101.24,89.34-144.49,111.3-43.26,21.96-82.85,32.94-118.79,32.94-26.3,0-47.54-3.52-63.78-10.51,97,134.04,254.73,221.24,432.83,221.24,294.88,0,533.93-239.05,533.93-533.93,0-133.67-49.12-255.87-130.3-349.54Z"/>
      <path class="cls-1" d="M633.04,537.71c0,1.33,2,3.08,5.99,5.24,3.99,2.17,9.81,3.24,17.47,3.24,11.64,0,23.79-1.82,36.43-5.49-9.32-5.32-22.63-7.99-39.93-7.99-13.31,0-19.96,1.67-19.96,4.99Z"/>
    </g>
  </g>
</svg>